<mxfile host="65bd71144e">
    <diagram id="n9KQt6kkjrG5HjDPY_oK" name="Page-1">
        <mxGraphModel dx="2105" dy="1691" grid="1" gridSize="10" guides="1" tooltips="1" connect="1" arrows="1" fold="1" page="1" pageScale="1" pageWidth="850" pageHeight="1100" math="0" shadow="0">
            <root>
                <mxCell id="0"/>
                <mxCell id="1" parent="0"/>
                <mxCell id="pK3gkvbiueadR3NNzkU--126" value="" style="ellipse;whiteSpace=wrap;html=1;fontSize=16;" parent="1" vertex="1">
                    <mxGeometry x="355" y="-127.5" width="137.5" height="60" as="geometry"/>
                </mxCell>
                <mxCell id="pK3gkvbiueadR3NNzkU--79" value="MANAGER" style="rounded=0;whiteSpace=wrap;html=1;fontSize=16;" parent="1" vertex="1">
                    <mxGeometry x="27.5" y="477.5" width="145" height="70" as="geometry"/>
                </mxCell>
                <mxCell id="pK3gkvbiueadR3NNzkU--80" value="COACH" style="rounded=0;whiteSpace=wrap;html=1;fontSize=16;" parent="1" vertex="1">
                    <mxGeometry x="-172.5" y="367.5" width="145" height="70" as="geometry"/>
                </mxCell>
                <mxCell id="pK3gkvbiueadR3NNzkU--78" value="COACHED_BY" style="rhombus;whiteSpace=wrap;html=1;fontSize=16;" parent="1" vertex="1">
                    <mxGeometry x="15" y="272.5" width="140" height="140" as="geometry"/>
                </mxCell>
                <mxCell id="pK3gkvbiueadR3NNzkU--77" value="MANAGED_BY" style="rhombus;whiteSpace=wrap;html=1;fontSize=16;" parent="1" vertex="1">
                    <mxGeometry x="140" y="332.5" width="140" height="140" as="geometry"/>
                </mxCell>
                <mxCell id="pK3gkvbiueadR3NNzkU--76" value="OWNED_BY" style="rhombus;whiteSpace=wrap;html=1;fontSize=16;" parent="1" vertex="1">
                    <mxGeometry x="290" y="332.5" width="140" height="140" as="geometry"/>
                </mxCell>
                <mxCell id="pK3gkvbiueadR3NNzkU--75" value="OWNER" style="rounded=0;whiteSpace=wrap;html=1;fontSize=16;" parent="1" vertex="1">
                    <mxGeometry x="282.5" y="537.5" width="145" height="70" as="geometry"/>
                </mxCell>
                <mxCell id="pK3gkvbiueadR3NNzkU--24" value="" style="rounded=0;whiteSpace=wrap;html=1;fontSize=16;" parent="1" vertex="1">
                    <mxGeometry x="635" y="620" width="130" height="65" as="geometry"/>
                </mxCell>
                <mxCell id="pK3gkvbiueadR3NNzkU--23" value="" style="rhombus;whiteSpace=wrap;html=1;fontSize=16;" parent="1" vertex="1">
                    <mxGeometry x="630" y="420" width="140" height="135" as="geometry"/>
                </mxCell>
                <mxCell id="11" style="edgeStyle=none;html=1;exitX=0;exitY=0;exitDx=0;exitDy=0;entryX=1;entryY=0.5;entryDx=0;entryDy=0;fontSize=16;endArrow=none;endFill=0;" parent="1" source="pK3gkvbiueadR3NNzkU--1" target="9" edge="1">
                    <mxGeometry relative="1" as="geometry"/>
                </mxCell>
                <mxCell id="46" style="edgeStyle=none;html=1;exitX=0;exitY=0;exitDx=0;exitDy=0;fontSize=16;endArrow=none;endFill=0;startArrow=none;" edge="1" parent="1" source="47">
                    <mxGeometry relative="1" as="geometry">
                        <mxPoint x="160" y="-200" as="targetPoint"/>
                    </mxGeometry>
                </mxCell>
                <mxCell id="pK3gkvbiueadR3NNzkU--1" value="&lt;font style=&quot;font-size: 16px;&quot;&gt;TEAM&lt;/font&gt;" style="rounded=0;whiteSpace=wrap;html=1;" parent="1" vertex="1">
                    <mxGeometry x="290" y="240" width="120" height="50" as="geometry"/>
                </mxCell>
                <mxCell id="pK3gkvbiueadR3NNzkU--6" value="&lt;font style=&quot;font-size: 16px;&quot;&gt;HOME_LOCATION&lt;br&gt;&lt;/font&gt;" style="rounded=0;whiteSpace=wrap;html=1;" parent="1" vertex="1">
                    <mxGeometry x="275" y="-20" width="150" height="50" as="geometry"/>
                </mxCell>
                <mxCell id="pK3gkvbiueadR3NNzkU--9" value="&lt;font style=&quot;font-size: 16px;&quot;&gt;DIVISION&lt;/font&gt;" style="rounded=0;whiteSpace=wrap;html=1;" parent="1" vertex="1">
                    <mxGeometry x="492.5" y="-10" width="120" height="50" as="geometry"/>
                </mxCell>
                <mxCell id="13" style="edgeStyle=none;html=1;exitX=0.75;exitY=0;exitDx=0;exitDy=0;entryX=0;entryY=0.5;entryDx=0;entryDy=0;fontSize=16;endArrow=none;endFill=0;" parent="1" source="pK3gkvbiueadR3NNzkU--10" target="pK3gkvbiueadR3NNzkU--154" edge="1">
                    <mxGeometry relative="1" as="geometry"/>
                </mxCell>
                <mxCell id="39" style="edgeStyle=none;html=1;exitX=0;exitY=1;exitDx=0;exitDy=0;entryX=0.5;entryY=0;entryDx=0;entryDy=0;fontSize=16;endArrow=none;endFill=0;" edge="1" parent="1" source="pK3gkvbiueadR3NNzkU--10" target="38">
                    <mxGeometry relative="1" as="geometry"/>
                </mxCell>
                <mxCell id="41" value="M" style="edgeLabel;html=1;align=center;verticalAlign=middle;resizable=0;points=[];fontSize=16;" vertex="1" connectable="0" parent="39">
                    <mxGeometry x="0.2518" y="-1" relative="1" as="geometry">
                        <mxPoint as="offset"/>
                    </mxGeometry>
                </mxCell>
                <mxCell id="pK3gkvbiueadR3NNzkU--10" value="&lt;font style=&quot;font-size: 16px&quot;&gt;BEST_PLAYER&lt;/font&gt;" style="rounded=0;whiteSpace=wrap;html=1;" parent="1" vertex="1">
                    <mxGeometry x="640" y="327.5" width="150" height="50" as="geometry"/>
                </mxCell>
                <mxCell id="pK3gkvbiueadR3NNzkU--14" value="Located_in" style="rhombus;whiteSpace=wrap;html=1;fontSize=16;" parent="1" vertex="1">
                    <mxGeometry x="295" y="85" width="110" height="105" as="geometry"/>
                </mxCell>
                <mxCell id="pK3gkvbiueadR3NNzkU--15" value="Competes_in" style="rhombus;whiteSpace=wrap;html=1;fontSize=16;" parent="1" vertex="1">
                    <mxGeometry x="417.5" y="70" width="110" height="105" as="geometry"/>
                </mxCell>
                <mxCell id="pK3gkvbiueadR3NNzkU--16" value="Plays_for" style="rhombus;whiteSpace=wrap;html=1;fontSize=16;" parent="1" vertex="1">
                    <mxGeometry x="460" y="282.5" width="110" height="105" as="geometry"/>
                </mxCell>
                <mxCell id="5" style="edgeStyle=none;html=1;entryX=0.5;entryY=0;entryDx=0;entryDy=0;fontSize=16;endArrow=none;endFill=0;" parent="1" source="pK3gkvbiueadR3NNzkU--18" target="4" edge="1">
                    <mxGeometry relative="1" as="geometry"/>
                </mxCell>
                <mxCell id="pK3gkvbiueadR3NNzkU--18" value="&lt;font style=&quot;font-size: 16px;&quot;&gt;AWARD&lt;/font&gt;" style="rounded=0;whiteSpace=wrap;html=1;" parent="1" vertex="1">
                    <mxGeometry x="640" y="627.5" width="120" height="50" as="geometry"/>
                </mxCell>
                <mxCell id="pK3gkvbiueadR3NNzkU--22" value="Receives" style="rhombus;whiteSpace=wrap;html=1;fontSize=16;" parent="1" vertex="1">
                    <mxGeometry x="645" y="435" width="110" height="105" as="geometry"/>
                </mxCell>
                <mxCell id="pK3gkvbiueadR3NNzkU--25" value="" style="endArrow=none;html=1;rounded=0;fontSize=16;entryX=0.5;entryY=1;entryDx=0;entryDy=0;exitX=0.5;exitY=0;exitDx=0;exitDy=0;" parent="1" source="pK3gkvbiueadR3NNzkU--1" target="pK3gkvbiueadR3NNzkU--14" edge="1">
                    <mxGeometry width="50" height="50" relative="1" as="geometry">
                        <mxPoint x="230" y="290" as="sourcePoint"/>
                        <mxPoint x="280" y="240" as="targetPoint"/>
                    </mxGeometry>
                </mxCell>
                <mxCell id="pK3gkvbiueadR3NNzkU--26" value="" style="endArrow=none;html=1;rounded=0;fontSize=16;entryX=0.5;entryY=1;entryDx=0;entryDy=0;exitX=0.5;exitY=0;exitDx=0;exitDy=0;" parent="1" source="pK3gkvbiueadR3NNzkU--14" target="pK3gkvbiueadR3NNzkU--6" edge="1">
                    <mxGeometry width="50" height="50" relative="1" as="geometry">
                        <mxPoint x="230" y="290" as="sourcePoint"/>
                        <mxPoint x="280" y="240" as="targetPoint"/>
                    </mxGeometry>
                </mxCell>
                <mxCell id="pK3gkvbiueadR3NNzkU--27" value="" style="endArrow=none;html=1;rounded=0;fontSize=16;exitX=0.406;exitY=0.005;exitDx=0;exitDy=0;exitPerimeter=0;" parent="1" source="pK3gkvbiueadR3NNzkU--1" edge="1">
                    <mxGeometry width="50" height="50" relative="1" as="geometry">
                        <mxPoint x="290" y="230" as="sourcePoint"/>
                        <mxPoint x="340" y="180" as="targetPoint"/>
                    </mxGeometry>
                </mxCell>
                <mxCell id="pK3gkvbiueadR3NNzkU--29" value="" style="endArrow=none;html=1;rounded=0;fontSize=16;exitX=0.401;exitY=0.108;exitDx=0;exitDy=0;exitPerimeter=0;" parent="1" source="pK3gkvbiueadR3NNzkU--14" edge="1">
                    <mxGeometry width="50" height="50" relative="1" as="geometry">
                        <mxPoint x="290" y="80" as="sourcePoint"/>
                        <mxPoint x="340" y="30" as="targetPoint"/>
                    </mxGeometry>
                </mxCell>
                <mxCell id="pK3gkvbiueadR3NNzkU--30" value="" style="endArrow=none;html=1;rounded=0;fontSize=16;entryX=0.5;entryY=1;entryDx=0;entryDy=0;exitX=0.5;exitY=0;exitDx=0;exitDy=0;" parent="1" source="pK3gkvbiueadR3NNzkU--76" target="pK3gkvbiueadR3NNzkU--1" edge="1">
                    <mxGeometry width="50" height="50" relative="1" as="geometry">
                        <mxPoint x="310" y="320" as="sourcePoint"/>
                        <mxPoint x="400" y="280" as="targetPoint"/>
                    </mxGeometry>
                </mxCell>
                <mxCell id="pK3gkvbiueadR3NNzkU--31" value="" style="endArrow=none;html=1;rounded=0;fontSize=16;entryX=0.5;entryY=1;entryDx=0;entryDy=0;" parent="1" target="pK3gkvbiueadR3NNzkU--76" edge="1">
                    <mxGeometry width="50" height="50" relative="1" as="geometry">
                        <mxPoint x="355" y="540" as="sourcePoint"/>
                        <mxPoint x="460" y="520" as="targetPoint"/>
                    </mxGeometry>
                </mxCell>
                <mxCell id="pK3gkvbiueadR3NNzkU--32" value="M" style="text;html=1;strokeColor=none;fillColor=none;align=center;verticalAlign=middle;whiteSpace=wrap;rounded=0;fontSize=16;" parent="1" vertex="1">
                    <mxGeometry x="295" y="190" width="60" height="30" as="geometry"/>
                </mxCell>
                <mxCell id="pK3gkvbiueadR3NNzkU--33" value="N" style="text;html=1;strokeColor=none;fillColor=none;align=center;verticalAlign=middle;whiteSpace=wrap;rounded=0;fontSize=16;" parent="1" vertex="1">
                    <mxGeometry x="295" y="40" width="60" height="30" as="geometry"/>
                </mxCell>
                <mxCell id="pK3gkvbiueadR3NNzkU--34" value="" style="endArrow=none;html=1;rounded=0;fontSize=16;exitX=0.453;exitY=0.035;exitDx=0;exitDy=0;exitPerimeter=0;" parent="1" source="pK3gkvbiueadR3NNzkU--76" edge="1">
                    <mxGeometry width="50" height="50" relative="1" as="geometry">
                        <mxPoint x="350" y="360" as="sourcePoint"/>
                        <mxPoint x="340" y="290" as="targetPoint"/>
                    </mxGeometry>
                </mxCell>
                <mxCell id="pK3gkvbiueadR3NNzkU--35" value="" style="endArrow=none;html=1;rounded=0;fontSize=16;exitX=0.438;exitY=-0.001;exitDx=0;exitDy=0;exitPerimeter=0;entryX=0.436;entryY=0.955;entryDx=0;entryDy=0;entryPerimeter=0;" parent="1" source="pK3gkvbiueadR3NNzkU--75" target="pK3gkvbiueadR3NNzkU--76" edge="1">
                    <mxGeometry width="50" height="50" relative="1" as="geometry">
                        <mxPoint x="310" y="360" as="sourcePoint"/>
                        <mxPoint x="360" y="310" as="targetPoint"/>
                    </mxGeometry>
                </mxCell>
                <mxCell id="pK3gkvbiueadR3NNzkU--36" value="1" style="text;html=1;strokeColor=none;fillColor=none;align=center;verticalAlign=middle;whiteSpace=wrap;rounded=0;fontSize=16;" parent="1" vertex="1">
                    <mxGeometry x="340" y="487.5" width="60" height="30" as="geometry"/>
                </mxCell>
                <mxCell id="pK3gkvbiueadR3NNzkU--37" value="M" style="text;html=1;strokeColor=none;fillColor=none;align=center;verticalAlign=middle;whiteSpace=wrap;rounded=0;fontSize=16;" parent="1" vertex="1">
                    <mxGeometry x="305" y="302.5" width="60" height="30" as="geometry"/>
                </mxCell>
                <mxCell id="pK3gkvbiueadR3NNzkU--38" value="" style="endArrow=none;html=1;rounded=0;fontSize=16;entryX=0;entryY=1;entryDx=0;entryDy=0;exitX=0.573;exitY=0.093;exitDx=0;exitDy=0;exitPerimeter=0;" parent="1" source="pK3gkvbiueadR3NNzkU--77" target="pK3gkvbiueadR3NNzkU--1" edge="1">
                    <mxGeometry width="50" height="50" relative="1" as="geometry">
                        <mxPoint x="230" y="340" as="sourcePoint"/>
                        <mxPoint x="350" y="310" as="targetPoint"/>
                    </mxGeometry>
                </mxCell>
                <mxCell id="pK3gkvbiueadR3NNzkU--39" value="" style="endArrow=none;html=1;rounded=0;fontSize=16;entryX=0.5;entryY=1;entryDx=0;entryDy=0;exitX=1;exitY=0;exitDx=0;exitDy=0;" parent="1" source="pK3gkvbiueadR3NNzkU--79" target="pK3gkvbiueadR3NNzkU--77" edge="1">
                    <mxGeometry width="50" height="50" relative="1" as="geometry">
                        <mxPoint x="160" y="480" as="sourcePoint"/>
                        <mxPoint x="340" y="310" as="targetPoint"/>
                    </mxGeometry>
                </mxCell>
                <mxCell id="pK3gkvbiueadR3NNzkU--40" value="" style="endArrow=none;html=1;rounded=0;fontSize=16;exitX=0.885;exitY=-0.017;exitDx=0;exitDy=0;exitPerimeter=0;entryX=0.439;entryY=0.951;entryDx=0;entryDy=0;entryPerimeter=0;" parent="1" target="pK3gkvbiueadR3NNzkU--77" edge="1">
                    <mxGeometry width="50" height="50" relative="1" as="geometry">
                        <mxPoint x="145.82499999999982" y="476.30999999999995" as="sourcePoint"/>
                        <mxPoint x="340" y="310" as="targetPoint"/>
                    </mxGeometry>
                </mxCell>
                <mxCell id="pK3gkvbiueadR3NNzkU--42" value="1" style="text;html=1;strokeColor=none;fillColor=none;align=center;verticalAlign=middle;whiteSpace=wrap;rounded=0;fontSize=16;" parent="1" vertex="1">
                    <mxGeometry x="130" y="440" width="60" height="30" as="geometry"/>
                </mxCell>
                <mxCell id="pK3gkvbiueadR3NNzkU--43" value="1" style="text;html=1;strokeColor=none;fillColor=none;align=center;verticalAlign=middle;whiteSpace=wrap;rounded=0;fontSize=16;" parent="1" vertex="1">
                    <mxGeometry x="235" y="320" width="60" height="30" as="geometry"/>
                </mxCell>
                <mxCell id="pK3gkvbiueadR3NNzkU--45" value="" style="endArrow=none;html=1;rounded=0;fontSize=16;entryX=0;entryY=0.5;entryDx=0;entryDy=0;" parent="1" target="pK3gkvbiueadR3NNzkU--1" edge="1">
                    <mxGeometry width="50" height="50" relative="1" as="geometry">
                        <mxPoint x="100" y="290" as="sourcePoint"/>
                        <mxPoint x="350" y="310" as="targetPoint"/>
                    </mxGeometry>
                </mxCell>
                <mxCell id="pK3gkvbiueadR3NNzkU--46" value="" style="endArrow=none;html=1;rounded=0;fontSize=16;entryX=0.5;entryY=1;entryDx=0;entryDy=0;" parent="1" target="pK3gkvbiueadR3NNzkU--78" edge="1">
                    <mxGeometry width="50" height="50" relative="1" as="geometry">
                        <mxPoint x="-30" y="403" as="sourcePoint"/>
                        <mxPoint x="350" y="310" as="targetPoint"/>
                    </mxGeometry>
                </mxCell>
                <mxCell id="pK3gkvbiueadR3NNzkU--47" value="1" style="text;html=1;strokeColor=none;fillColor=none;align=center;verticalAlign=middle;whiteSpace=wrap;rounded=0;fontSize=16;" parent="1" vertex="1">
                    <mxGeometry x="160" y="250" width="60" height="30" as="geometry"/>
                </mxCell>
                <mxCell id="pK3gkvbiueadR3NNzkU--48" value="1" style="text;html=1;strokeColor=none;fillColor=none;align=center;verticalAlign=middle;whiteSpace=wrap;rounded=0;fontSize=16;" parent="1" vertex="1">
                    <mxGeometry x="-20" y="405" width="60" height="30" as="geometry"/>
                </mxCell>
                <mxCell id="pK3gkvbiueadR3NNzkU--49" value="" style="endArrow=none;html=1;rounded=0;fontSize=16;entryX=0.401;entryY=0.906;entryDx=0;entryDy=0;entryPerimeter=0;" parent="1" target="pK3gkvbiueadR3NNzkU--78" edge="1">
                    <mxGeometry width="50" height="50" relative="1" as="geometry">
                        <mxPoint x="-30" y="390" as="sourcePoint"/>
                        <mxPoint x="350" y="310" as="targetPoint"/>
                    </mxGeometry>
                </mxCell>
                <mxCell id="pK3gkvbiueadR3NNzkU--50" value="" style="endArrow=none;html=1;rounded=0;fontSize=16;entryX=0;entryY=0.75;entryDx=0;entryDy=0;" parent="1" target="pK3gkvbiueadR3NNzkU--1" edge="1">
                    <mxGeometry width="50" height="50" relative="1" as="geometry">
                        <mxPoint x="110" y="300" as="sourcePoint"/>
                        <mxPoint x="350" y="310" as="targetPoint"/>
                    </mxGeometry>
                </mxCell>
                <mxCell id="pK3gkvbiueadR3NNzkU--51" value="" style="endArrow=none;html=1;rounded=0;fontSize=16;exitX=0.614;exitY=0.121;exitDx=0;exitDy=0;exitPerimeter=0;entryX=0.072;entryY=0.999;entryDx=0;entryDy=0;entryPerimeter=0;" parent="1" source="pK3gkvbiueadR3NNzkU--77" target="pK3gkvbiueadR3NNzkU--1" edge="1">
                    <mxGeometry width="50" height="50" relative="1" as="geometry">
                        <mxPoint x="290" y="340" as="sourcePoint"/>
                        <mxPoint x="340" y="290" as="targetPoint"/>
                    </mxGeometry>
                </mxCell>
                <mxCell id="pK3gkvbiueadR3NNzkU--53" value="" style="endArrow=none;html=1;rounded=0;fontSize=16;entryX=0;entryY=0;entryDx=0;entryDy=0;exitX=1;exitY=0.5;exitDx=0;exitDy=0;" parent="1" source="pK3gkvbiueadR3NNzkU--1" target="pK3gkvbiueadR3NNzkU--16" edge="1">
                    <mxGeometry width="50" height="50" relative="1" as="geometry">
                        <mxPoint x="380" y="280" as="sourcePoint"/>
                        <mxPoint x="430" y="230" as="targetPoint"/>
                    </mxGeometry>
                </mxCell>
                <mxCell id="pK3gkvbiueadR3NNzkU--54" value="" style="endArrow=none;html=1;rounded=0;fontSize=16;entryX=0;entryY=0.5;entryDx=0;entryDy=0;exitX=1;exitY=1;exitDx=0;exitDy=0;" parent="1" source="pK3gkvbiueadR3NNzkU--16" target="pK3gkvbiueadR3NNzkU--10" edge="1">
                    <mxGeometry width="50" height="50" relative="1" as="geometry">
                        <mxPoint x="380" y="280" as="sourcePoint"/>
                        <mxPoint x="430" y="230" as="targetPoint"/>
                    </mxGeometry>
                </mxCell>
                <mxCell id="pK3gkvbiueadR3NNzkU--55" value="" style="endArrow=none;html=1;rounded=0;fontSize=16;entryX=0;entryY=0.25;entryDx=0;entryDy=0;exitX=0.849;exitY=0.651;exitDx=0;exitDy=0;exitPerimeter=0;" parent="1" source="pK3gkvbiueadR3NNzkU--16" target="pK3gkvbiueadR3NNzkU--10" edge="1">
                    <mxGeometry width="50" height="50" relative="1" as="geometry">
                        <mxPoint x="380" y="280" as="sourcePoint"/>
                        <mxPoint x="430" y="230" as="targetPoint"/>
                    </mxGeometry>
                </mxCell>
                <mxCell id="pK3gkvbiueadR3NNzkU--56" value="" style="endArrow=none;html=1;rounded=0;fontSize=16;entryX=0.153;entryY=0.333;entryDx=0;entryDy=0;entryPerimeter=0;exitX=1;exitY=0.75;exitDx=0;exitDy=0;" parent="1" source="pK3gkvbiueadR3NNzkU--1" target="pK3gkvbiueadR3NNzkU--16" edge="1">
                    <mxGeometry width="50" height="50" relative="1" as="geometry">
                        <mxPoint x="390" y="320" as="sourcePoint"/>
                        <mxPoint x="440" y="270" as="targetPoint"/>
                    </mxGeometry>
                </mxCell>
                <mxCell id="pK3gkvbiueadR3NNzkU--57" value="M" style="text;html=1;strokeColor=none;fillColor=none;align=center;verticalAlign=middle;whiteSpace=wrap;rounded=0;fontSize=16;" parent="1" vertex="1">
                    <mxGeometry x="575" y="320" width="60" height="30" as="geometry"/>
                </mxCell>
                <mxCell id="pK3gkvbiueadR3NNzkU--58" value="1" style="text;html=1;strokeColor=none;fillColor=none;align=center;verticalAlign=middle;whiteSpace=wrap;rounded=0;fontSize=16;" parent="1" vertex="1">
                    <mxGeometry x="425" y="260" width="60" height="30" as="geometry"/>
                </mxCell>
                <mxCell id="pK3gkvbiueadR3NNzkU--59" value="" style="endArrow=none;html=1;rounded=0;fontSize=16;entryX=0;entryY=1;entryDx=0;entryDy=0;exitX=1;exitY=0;exitDx=0;exitDy=0;" parent="1" source="pK3gkvbiueadR3NNzkU--1" target="pK3gkvbiueadR3NNzkU--15" edge="1">
                    <mxGeometry width="50" height="50" relative="1" as="geometry">
                        <mxPoint x="390" y="320" as="sourcePoint"/>
                        <mxPoint x="440" y="270" as="targetPoint"/>
                    </mxGeometry>
                </mxCell>
                <mxCell id="pK3gkvbiueadR3NNzkU--60" value="" style="endArrow=none;html=1;rounded=0;fontSize=16;entryX=0.146;entryY=0.679;entryDx=0;entryDy=0;entryPerimeter=0;exitX=0.75;exitY=0;exitDx=0;exitDy=0;" parent="1" source="pK3gkvbiueadR3NNzkU--1" target="pK3gkvbiueadR3NNzkU--15" edge="1">
                    <mxGeometry width="50" height="50" relative="1" as="geometry">
                        <mxPoint x="390" y="320" as="sourcePoint"/>
                        <mxPoint x="440" y="270" as="targetPoint"/>
                    </mxGeometry>
                </mxCell>
                <mxCell id="pK3gkvbiueadR3NNzkU--61" value="" style="endArrow=none;html=1;rounded=0;fontSize=16;entryX=0.25;entryY=1;entryDx=0;entryDy=0;exitX=1;exitY=0;exitDx=0;exitDy=0;" parent="1" source="pK3gkvbiueadR3NNzkU--15" target="pK3gkvbiueadR3NNzkU--9" edge="1">
                    <mxGeometry width="50" height="50" relative="1" as="geometry">
                        <mxPoint x="390" y="320" as="sourcePoint"/>
                        <mxPoint x="440" y="270" as="targetPoint"/>
                    </mxGeometry>
                </mxCell>
                <mxCell id="pK3gkvbiueadR3NNzkU--62" value="" style="endArrow=none;html=1;rounded=0;fontSize=16;exitX=0.699;exitY=0.177;exitDx=0;exitDy=0;exitPerimeter=0;entryX=0.128;entryY=1.063;entryDx=0;entryDy=0;entryPerimeter=0;" parent="1" source="pK3gkvbiueadR3NNzkU--15" edge="1" target="pK3gkvbiueadR3NNzkU--9">
                    <mxGeometry width="50" height="50" relative="1" as="geometry">
                        <mxPoint x="520" y="150" as="sourcePoint"/>
                        <mxPoint x="610" y="110" as="targetPoint"/>
                    </mxGeometry>
                </mxCell>
                <mxCell id="pK3gkvbiueadR3NNzkU--63" value="" style="endArrow=none;html=1;rounded=0;fontSize=16;entryX=0.5;entryY=0;entryDx=0;entryDy=0;exitX=0.5;exitY=1;exitDx=0;exitDy=0;" parent="1" source="pK3gkvbiueadR3NNzkU--23" target="pK3gkvbiueadR3NNzkU--24" edge="1">
                    <mxGeometry width="50" height="50" relative="1" as="geometry">
                        <mxPoint x="350" y="350" as="sourcePoint"/>
                        <mxPoint x="400" y="300" as="targetPoint"/>
                    </mxGeometry>
                </mxCell>
                <mxCell id="pK3gkvbiueadR3NNzkU--64" value="" style="endArrow=none;html=1;rounded=0;fontSize=16;entryX=0.5;entryY=0;entryDx=0;entryDy=0;exitX=0.58;exitY=0.937;exitDx=0;exitDy=0;exitPerimeter=0;" parent="1" source="pK3gkvbiueadR3NNzkU--23" edge="1">
                    <mxGeometry width="50" height="50" relative="1" as="geometry">
                        <mxPoint x="710" y="555" as="sourcePoint"/>
                        <mxPoint x="710" y="620" as="targetPoint"/>
                    </mxGeometry>
                </mxCell>
                <mxCell id="pK3gkvbiueadR3NNzkU--65" value="" style="endArrow=none;html=1;rounded=0;fontSize=16;entryX=0.5;entryY=1;entryDx=0;entryDy=0;exitX=0.5;exitY=0;exitDx=0;exitDy=0;" parent="1" source="pK3gkvbiueadR3NNzkU--23" target="pK3gkvbiueadR3NNzkU--10" edge="1">
                    <mxGeometry width="50" height="50" relative="1" as="geometry">
                        <mxPoint x="510" y="470" as="sourcePoint"/>
                        <mxPoint x="560" y="420" as="targetPoint"/>
                    </mxGeometry>
                </mxCell>
                <mxCell id="pK3gkvbiueadR3NNzkU--67" value="1" style="text;html=1;strokeColor=none;fillColor=none;align=center;verticalAlign=middle;whiteSpace=wrap;rounded=0;fontSize=16;" parent="1" vertex="1">
                    <mxGeometry x="510" y="57.5" width="60" height="30" as="geometry"/>
                </mxCell>
                <mxCell id="pK3gkvbiueadR3NNzkU--69" value="M" style="text;html=1;strokeColor=none;fillColor=none;align=center;verticalAlign=middle;whiteSpace=wrap;rounded=0;fontSize=16;" parent="1" vertex="1">
                    <mxGeometry x="380" y="200" width="60" height="30" as="geometry"/>
                </mxCell>
                <mxCell id="pK3gkvbiueadR3NNzkU--70" value="M" style="text;html=1;strokeColor=none;fillColor=none;align=center;verticalAlign=middle;whiteSpace=wrap;rounded=0;fontSize=16;" parent="1" vertex="1">
                    <mxGeometry x="690" y="387.5" width="60" height="30" as="geometry"/>
                </mxCell>
                <mxCell id="pK3gkvbiueadR3NNzkU--71" value="1" style="text;html=1;strokeColor=none;fillColor=none;align=center;verticalAlign=middle;whiteSpace=wrap;rounded=0;fontSize=16;" parent="1" vertex="1">
                    <mxGeometry x="695" y="570" width="60" height="30" as="geometry"/>
                </mxCell>
                <mxCell id="pK3gkvbiueadR3NNzkU--72" value="Name" style="ellipse;whiteSpace=wrap;html=1;fontSize=16;" parent="1" vertex="1">
                    <mxGeometry x="417.5" y="630" width="115" height="45" as="geometry"/>
                </mxCell>
                <mxCell id="pK3gkvbiueadR3NNzkU--73" value="Start_date" style="ellipse;whiteSpace=wrap;html=1;fontSize=16;" parent="1" vertex="1">
                    <mxGeometry x="302.5" y="652.5" width="115" height="45" as="geometry"/>
                </mxCell>
                <mxCell id="pK3gkvbiueadR3NNzkU--81" value="" style="endArrow=none;html=1;rounded=0;fontSize=16;exitX=0.5;exitY=0;exitDx=0;exitDy=0;entryX=1;entryY=1;entryDx=0;entryDy=0;" parent="1" source="pK3gkvbiueadR3NNzkU--72" target="pK3gkvbiueadR3NNzkU--75" edge="1">
                    <mxGeometry width="50" height="50" relative="1" as="geometry">
                        <mxPoint x="230" y="380" as="sourcePoint"/>
                        <mxPoint x="280" y="330" as="targetPoint"/>
                    </mxGeometry>
                </mxCell>
                <mxCell id="pK3gkvbiueadR3NNzkU--82" value="" style="endArrow=none;html=1;rounded=0;fontSize=16;entryX=0.5;entryY=0;entryDx=0;entryDy=0;exitX=0.5;exitY=1;exitDx=0;exitDy=0;" parent="1" source="pK3gkvbiueadR3NNzkU--75" target="pK3gkvbiueadR3NNzkU--73" edge="1">
                    <mxGeometry width="50" height="50" relative="1" as="geometry">
                        <mxPoint x="230" y="380" as="sourcePoint"/>
                        <mxPoint x="280" y="330" as="targetPoint"/>
                    </mxGeometry>
                </mxCell>
                <mxCell id="pK3gkvbiueadR3NNzkU--88" value="Name" style="ellipse;whiteSpace=wrap;html=1;fontSize=16;" parent="1" vertex="1">
                    <mxGeometry x="-142.5" y="547.5" width="115" height="45" as="geometry"/>
                </mxCell>
                <mxCell id="pK3gkvbiueadR3NNzkU--90" value="Start_date" style="ellipse;whiteSpace=wrap;html=1;fontSize=16;" parent="1" vertex="1">
                    <mxGeometry x="15" y="607.5" width="115" height="45" as="geometry"/>
                </mxCell>
                <mxCell id="pK3gkvbiueadR3NNzkU--92" value="" style="endArrow=none;html=1;rounded=0;fontSize=16;exitX=0.5;exitY=0;exitDx=0;exitDy=0;entryX=0.5;entryY=1;entryDx=0;entryDy=0;" parent="1" source="pK3gkvbiueadR3NNzkU--90" target="pK3gkvbiueadR3NNzkU--79" edge="1">
                    <mxGeometry width="50" height="50" relative="1" as="geometry">
                        <mxPoint x="130" y="460" as="sourcePoint"/>
                        <mxPoint x="180" y="410" as="targetPoint"/>
                    </mxGeometry>
                </mxCell>
                <mxCell id="pK3gkvbiueadR3NNzkU--94" value="" style="endArrow=none;html=1;rounded=0;fontSize=16;exitX=0.25;exitY=1;exitDx=0;exitDy=0;entryX=1;entryY=0.5;entryDx=0;entryDy=0;" parent="1" source="pK3gkvbiueadR3NNzkU--79" target="pK3gkvbiueadR3NNzkU--88" edge="1">
                    <mxGeometry width="50" height="50" relative="1" as="geometry">
                        <mxPoint x="110" y="557.5" as="sourcePoint"/>
                        <mxPoint x="59.01432179413973" y="601.9321293271973" as="targetPoint"/>
                    </mxGeometry>
                </mxCell>
                <mxCell id="pK3gkvbiueadR3NNzkU--95" value="&lt;u&gt;ID&lt;/u&gt;" style="ellipse;whiteSpace=wrap;html=1;fontSize=16;" parent="1" vertex="1">
                    <mxGeometry x="485" y="555" width="115" height="45" as="geometry"/>
                </mxCell>
                <mxCell id="pK3gkvbiueadR3NNzkU--96" value="" style="endArrow=none;html=1;rounded=0;fontSize=16;entryX=0;entryY=0.5;entryDx=0;entryDy=0;exitX=1;exitY=0.5;exitDx=0;exitDy=0;" parent="1" source="pK3gkvbiueadR3NNzkU--75" target="pK3gkvbiueadR3NNzkU--95" edge="1">
                    <mxGeometry width="50" height="50" relative="1" as="geometry">
                        <mxPoint x="190" y="480" as="sourcePoint"/>
                        <mxPoint x="240" y="430" as="targetPoint"/>
                    </mxGeometry>
                </mxCell>
                <mxCell id="pK3gkvbiueadR3NNzkU--97" value="&lt;u&gt;ID&lt;/u&gt;" style="ellipse;whiteSpace=wrap;html=1;fontSize=16;" parent="1" vertex="1">
                    <mxGeometry x="-142.5" y="480" width="115" height="45" as="geometry"/>
                </mxCell>
                <mxCell id="pK3gkvbiueadR3NNzkU--98" value="" style="endArrow=none;html=1;rounded=0;fontSize=16;exitX=1;exitY=0.5;exitDx=0;exitDy=0;entryX=0;entryY=0.5;entryDx=0;entryDy=0;" parent="1" source="pK3gkvbiueadR3NNzkU--97" target="pK3gkvbiueadR3NNzkU--79" edge="1">
                    <mxGeometry width="50" height="50" relative="1" as="geometry">
                        <mxPoint x="110" y="490" as="sourcePoint"/>
                        <mxPoint x="160" y="440" as="targetPoint"/>
                    </mxGeometry>
                </mxCell>
                <mxCell id="pK3gkvbiueadR3NNzkU--99" value="Name" style="ellipse;whiteSpace=wrap;html=1;fontSize=16;" parent="1" vertex="1">
                    <mxGeometry x="-420" y="360" width="115" height="45" as="geometry"/>
                </mxCell>
                <mxCell id="pK3gkvbiueadR3NNzkU--101" value="Start_date" style="ellipse;whiteSpace=wrap;html=1;fontSize=16;" parent="1" vertex="1">
                    <mxGeometry x="-370" y="425" width="115" height="45" as="geometry"/>
                </mxCell>
                <mxCell id="pK3gkvbiueadR3NNzkU--103" value="" style="endArrow=none;html=1;rounded=0;fontSize=16;exitX=0.5;exitY=0;exitDx=0;exitDy=0;entryX=0;entryY=0.5;entryDx=0;entryDy=0;" parent="1" source="pK3gkvbiueadR3NNzkU--101" target="pK3gkvbiueadR3NNzkU--80" edge="1">
                    <mxGeometry width="50" height="50" relative="1" as="geometry">
                        <mxPoint x="-257.5" y="232.5" as="sourcePoint"/>
                        <mxPoint x="-287.5" y="320" as="targetPoint"/>
                    </mxGeometry>
                </mxCell>
                <mxCell id="pK3gkvbiueadR3NNzkU--105" value="" style="endArrow=none;html=1;rounded=0;fontSize=16;exitX=0;exitY=0.5;exitDx=0;exitDy=0;entryX=1;entryY=0.5;entryDx=0;entryDy=0;" parent="1" source="pK3gkvbiueadR3NNzkU--80" target="pK3gkvbiueadR3NNzkU--99" edge="1">
                    <mxGeometry width="50" height="50" relative="1" as="geometry">
                        <mxPoint x="-323.75" y="320" as="sourcePoint"/>
                        <mxPoint x="-328.48567820586027" y="374.43212932719734" as="targetPoint"/>
                    </mxGeometry>
                </mxCell>
                <mxCell id="pK3gkvbiueadR3NNzkU--106" value="&lt;u&gt;ID&lt;/u&gt;" style="ellipse;whiteSpace=wrap;html=1;fontSize=16;" parent="1" vertex="1">
                    <mxGeometry x="-410" y="295" width="115" height="45" as="geometry"/>
                </mxCell>
                <mxCell id="pK3gkvbiueadR3NNzkU--107" value="" style="endArrow=none;html=1;rounded=0;fontSize=16;entryX=1;entryY=0.5;entryDx=0;entryDy=0;exitX=0;exitY=0.5;exitDx=0;exitDy=0;" parent="1" source="pK3gkvbiueadR3NNzkU--80" target="pK3gkvbiueadR3NNzkU--106" edge="1">
                    <mxGeometry width="50" height="50" relative="1" as="geometry">
                        <mxPoint x="40" y="390" as="sourcePoint"/>
                        <mxPoint x="90" y="340" as="targetPoint"/>
                    </mxGeometry>
                </mxCell>
                <mxCell id="pK3gkvbiueadR3NNzkU--110" value="" style="endArrow=none;html=1;rounded=0;fontSize=16;entryX=0.25;entryY=0;entryDx=0;entryDy=0;exitX=0.5;exitY=1;exitDx=0;exitDy=0;" parent="1" source="pK3gkvbiueadR3NNzkU--112" target="pK3gkvbiueadR3NNzkU--6" edge="1">
                    <mxGeometry width="50" height="50" relative="1" as="geometry">
                        <mxPoint x="280" y="-80" as="sourcePoint"/>
                        <mxPoint x="400" y="230" as="targetPoint"/>
                    </mxGeometry>
                </mxCell>
                <mxCell id="pK3gkvbiueadR3NNzkU--112" value="Team_location" style="ellipse;whiteSpace=wrap;html=1;fontSize=16;" parent="1" vertex="1">
                    <mxGeometry x="220" y="-120" width="115" height="45" as="geometry"/>
                </mxCell>
                <mxCell id="pK3gkvbiueadR3NNzkU--113" value="&lt;u&gt;Stadium&lt;/u&gt;" style="ellipse;whiteSpace=wrap;html=1;fontSize=16;" parent="1" vertex="1">
                    <mxGeometry x="365" y="-120" width="115" height="45" as="geometry"/>
                </mxCell>
                <mxCell id="pK3gkvbiueadR3NNzkU--114" value="" style="endArrow=none;html=1;rounded=0;fontSize=16;entryX=0.5;entryY=1;entryDx=0;entryDy=0;exitX=0.5;exitY=0;exitDx=0;exitDy=0;" parent="1" source="pK3gkvbiueadR3NNzkU--6" target="pK3gkvbiueadR3NNzkU--113" edge="1">
                    <mxGeometry width="50" height="50" relative="1" as="geometry">
                        <mxPoint x="310" y="180" as="sourcePoint"/>
                        <mxPoint x="360" y="130" as="targetPoint"/>
                    </mxGeometry>
                </mxCell>
                <mxCell id="pK3gkvbiueadR3NNzkU--115" value="Avg_attendance" style="ellipse;whiteSpace=wrap;html=1;fontSize=16;" parent="1" vertex="1">
                    <mxGeometry x="500" y="-200" width="140" height="45" as="geometry"/>
                </mxCell>
                <mxCell id="pK3gkvbiueadR3NNzkU--116" value="" style="endArrow=none;html=1;rounded=0;fontSize=16;entryX=0;entryY=0.5;entryDx=0;entryDy=0;exitX=1;exitY=0.5;exitDx=0;exitDy=0;" parent="1" source="pK3gkvbiueadR3NNzkU--113" target="pK3gkvbiueadR3NNzkU--115" edge="1">
                    <mxGeometry width="50" height="50" relative="1" as="geometry">
                        <mxPoint x="310" y="30" as="sourcePoint"/>
                        <mxPoint x="360" y="-20" as="targetPoint"/>
                    </mxGeometry>
                </mxCell>
                <mxCell id="pK3gkvbiueadR3NNzkU--117" value="City" style="ellipse;whiteSpace=wrap;html=1;fontSize=16;" parent="1" vertex="1">
                    <mxGeometry x="295" y="-210" width="140" height="45" as="geometry"/>
                </mxCell>
                <mxCell id="pK3gkvbiueadR3NNzkU--118" value="" style="endArrow=none;html=1;rounded=0;fontSize=16;entryX=0.5;entryY=1;entryDx=0;entryDy=0;exitX=0.5;exitY=0;exitDx=0;exitDy=0;" parent="1" source="pK3gkvbiueadR3NNzkU--113" target="pK3gkvbiueadR3NNzkU--117" edge="1">
                    <mxGeometry width="50" height="50" relative="1" as="geometry">
                        <mxPoint x="310" y="30" as="sourcePoint"/>
                        <mxPoint x="360" y="-20" as="targetPoint"/>
                    </mxGeometry>
                </mxCell>
                <mxCell id="pK3gkvbiueadR3NNzkU--129" value="Name" style="ellipse;whiteSpace=wrap;html=1;fontSize=16;" parent="1" vertex="1">
                    <mxGeometry x="460" y="-67.5" width="120" height="45" as="geometry"/>
                </mxCell>
                <mxCell id="pK3gkvbiueadR3NNzkU--130" value="Conference" style="ellipse;whiteSpace=wrap;html=1;fontSize=16;" parent="1" vertex="1">
                    <mxGeometry x="600" y="-65" width="120" height="45" as="geometry"/>
                </mxCell>
                <mxCell id="pK3gkvbiueadR3NNzkU--131" value="" style="endArrow=none;html=1;rounded=0;fontSize=16;entryX=0;entryY=0.5;entryDx=0;entryDy=0;exitX=1;exitY=0.5;exitDx=0;exitDy=0;" parent="1" source="pK3gkvbiueadR3NNzkU--9" target="pK3gkvbiueadR3NNzkU--130" edge="1">
                    <mxGeometry width="50" height="50" relative="1" as="geometry">
                        <mxPoint x="300" y="110" as="sourcePoint"/>
                        <mxPoint x="350" y="60" as="targetPoint"/>
                    </mxGeometry>
                </mxCell>
                <mxCell id="pK3gkvbiueadR3NNzkU--132" value="" style="endArrow=none;html=1;rounded=0;fontSize=16;entryX=0;entryY=1;entryDx=0;entryDy=0;exitX=0.5;exitY=0;exitDx=0;exitDy=0;" parent="1" source="pK3gkvbiueadR3NNzkU--9" target="pK3gkvbiueadR3NNzkU--129" edge="1">
                    <mxGeometry width="50" height="50" relative="1" as="geometry">
                        <mxPoint x="730" y="95" as="sourcePoint"/>
                        <mxPoint x="780" y="82.5" as="targetPoint"/>
                    </mxGeometry>
                </mxCell>
                <mxCell id="pK3gkvbiueadR3NNzkU--133" value="&lt;u&gt;Name&lt;/u&gt;" style="ellipse;whiteSpace=wrap;html=1;fontSize=16;" parent="1" vertex="1">
                    <mxGeometry x="-40" y="222.5" width="112.5" height="50" as="geometry"/>
                </mxCell>
                <mxCell id="pK3gkvbiueadR3NNzkU--135" value="Wins" style="ellipse;whiteSpace=wrap;html=1;fontSize=16;" parent="1" vertex="1">
                    <mxGeometry x="-40" y="170" width="112.5" height="50" as="geometry"/>
                </mxCell>
                <mxCell id="pK3gkvbiueadR3NNzkU--136" value="Losses" style="ellipse;whiteSpace=wrap;html=1;fontSize=16;" parent="1" vertex="1">
                    <mxGeometry x="-40" y="120" width="112.5" height="50" as="geometry"/>
                </mxCell>
                <mxCell id="pK3gkvbiueadR3NNzkU--138" value="Conf_seed" style="ellipse;whiteSpace=wrap;html=1;fontSize=16;" parent="1" vertex="1">
                    <mxGeometry x="-40" y="20" width="112.5" height="50" as="geometry"/>
                </mxCell>
                <mxCell id="pK3gkvbiueadR3NNzkU--139" value="Made_playoff" style="ellipse;whiteSpace=wrap;html=1;fontSize=16;dashed=1;" parent="1" vertex="1">
                    <mxGeometry x="-40" y="-32.5" width="112.5" height="50" as="geometry"/>
                </mxCell>
                <mxCell id="pK3gkvbiueadR3NNzkU--141" value="Won_conference" style="ellipse;whiteSpace=wrap;html=1;fontSize=16;" parent="1" vertex="1">
                    <mxGeometry x="-40" y="-82.5" width="136.25" height="50" as="geometry"/>
                </mxCell>
                <mxCell id="pK3gkvbiueadR3NNzkU--142" value="Won_championship" style="ellipse;whiteSpace=wrap;html=1;fontSize=16;" parent="1" vertex="1">
                    <mxGeometry x="-40" y="-132.5" width="160" height="50" as="geometry"/>
                </mxCell>
                <mxCell id="pK3gkvbiueadR3NNzkU--143" value="" style="endArrow=none;html=1;rounded=0;fontSize=16;exitX=1;exitY=0.5;exitDx=0;exitDy=0;entryX=0;entryY=0;entryDx=0;entryDy=0;" parent="1" source="pK3gkvbiueadR3NNzkU--133" target="pK3gkvbiueadR3NNzkU--1" edge="1">
                    <mxGeometry width="50" height="50" relative="1" as="geometry">
                        <mxPoint x="250" y="130" as="sourcePoint"/>
                        <mxPoint x="300" y="80" as="targetPoint"/>
                    </mxGeometry>
                </mxCell>
                <mxCell id="pK3gkvbiueadR3NNzkU--145" value="" style="endArrow=none;html=1;rounded=0;fontSize=16;exitX=0;exitY=0;exitDx=0;exitDy=0;entryX=1;entryY=0.5;entryDx=0;entryDy=0;" parent="1" source="pK3gkvbiueadR3NNzkU--1" target="pK3gkvbiueadR3NNzkU--135" edge="1">
                    <mxGeometry width="50" height="50" relative="1" as="geometry">
                        <mxPoint x="300" y="250" as="sourcePoint"/>
                        <mxPoint x="82.5" y="205" as="targetPoint"/>
                    </mxGeometry>
                </mxCell>
                <mxCell id="pK3gkvbiueadR3NNzkU--146" value="" style="endArrow=none;html=1;rounded=0;fontSize=16;exitX=0;exitY=0;exitDx=0;exitDy=0;entryX=1;entryY=0.5;entryDx=0;entryDy=0;" parent="1" source="pK3gkvbiueadR3NNzkU--1" target="pK3gkvbiueadR3NNzkU--136" edge="1">
                    <mxGeometry width="50" height="50" relative="1" as="geometry">
                        <mxPoint x="300" y="250" as="sourcePoint"/>
                        <mxPoint x="82.5" y="155" as="targetPoint"/>
                    </mxGeometry>
                </mxCell>
                <mxCell id="pK3gkvbiueadR3NNzkU--148" value="" style="endArrow=none;html=1;rounded=0;fontSize=16;exitX=0;exitY=0;exitDx=0;exitDy=0;entryX=1;entryY=0.5;entryDx=0;entryDy=0;" parent="1" source="pK3gkvbiueadR3NNzkU--1" target="pK3gkvbiueadR3NNzkU--138" edge="1">
                    <mxGeometry width="50" height="50" relative="1" as="geometry">
                        <mxPoint x="300" y="250" as="sourcePoint"/>
                        <mxPoint x="82.5" y="55" as="targetPoint"/>
                    </mxGeometry>
                </mxCell>
                <mxCell id="pK3gkvbiueadR3NNzkU--149" value="" style="endArrow=none;html=1;rounded=0;fontSize=16;exitX=0;exitY=0;exitDx=0;exitDy=0;entryX=1;entryY=0.5;entryDx=0;entryDy=0;" parent="1" source="pK3gkvbiueadR3NNzkU--1" target="pK3gkvbiueadR3NNzkU--139" edge="1">
                    <mxGeometry width="50" height="50" relative="1" as="geometry">
                        <mxPoint x="300" y="250" as="sourcePoint"/>
                        <mxPoint x="82.5" y="5" as="targetPoint"/>
                    </mxGeometry>
                </mxCell>
                <mxCell id="pK3gkvbiueadR3NNzkU--151" value="" style="endArrow=none;html=1;rounded=0;fontSize=16;exitX=0;exitY=0;exitDx=0;exitDy=0;entryX=1;entryY=0.5;entryDx=0;entryDy=0;" parent="1" source="pK3gkvbiueadR3NNzkU--1" target="pK3gkvbiueadR3NNzkU--141" edge="1">
                    <mxGeometry width="50" height="50" relative="1" as="geometry">
                        <mxPoint x="300" y="250" as="sourcePoint"/>
                        <mxPoint x="82.5" y="-95" as="targetPoint"/>
                    </mxGeometry>
                </mxCell>
                <mxCell id="pK3gkvbiueadR3NNzkU--152" value="" style="endArrow=none;html=1;rounded=0;fontSize=16;entryX=1;entryY=0.5;entryDx=0;entryDy=0;" parent="1" target="pK3gkvbiueadR3NNzkU--142" edge="1">
                    <mxGeometry width="50" height="50" relative="1" as="geometry">
                        <mxPoint x="290" y="240" as="sourcePoint"/>
                        <mxPoint x="106.25000000000273" y="-145" as="targetPoint"/>
                    </mxGeometry>
                </mxCell>
                <mxCell id="pK3gkvbiueadR3NNzkU--153" value="&lt;u&gt;ID&lt;/u&gt;" style="ellipse;whiteSpace=wrap;html=1;fontSize=16;" parent="1" vertex="1">
                    <mxGeometry x="680" y="185" width="120" height="45" as="geometry"/>
                </mxCell>
                <mxCell id="pK3gkvbiueadR3NNzkU--154" value="Name" style="ellipse;whiteSpace=wrap;html=1;fontSize=16;" parent="1" vertex="1">
                    <mxGeometry x="810" y="190" width="120" height="45" as="geometry"/>
                </mxCell>
                <mxCell id="pK3gkvbiueadR3NNzkU--155" value="Number" style="ellipse;whiteSpace=wrap;html=1;fontSize=16;" parent="1" vertex="1">
                    <mxGeometry x="750" y="145" width="120" height="45" as="geometry"/>
                </mxCell>
                <mxCell id="pK3gkvbiueadR3NNzkU--156" value="Start_date" style="ellipse;whiteSpace=wrap;html=1;fontSize=16;" parent="1" vertex="1">
                    <mxGeometry x="810" y="237.5" width="120" height="45" as="geometry"/>
                </mxCell>
                <mxCell id="pK3gkvbiueadR3NNzkU--159" value="Draft_pick" style="ellipse;whiteSpace=wrap;html=1;fontSize=16;" parent="1" vertex="1">
                    <mxGeometry x="840" y="360" width="120" height="45" as="geometry"/>
                </mxCell>
                <mxCell id="pK3gkvbiueadR3NNzkU--161" value="" style="endArrow=none;html=1;rounded=0;fontSize=16;entryX=0.5;entryY=1;entryDx=0;entryDy=0;exitX=0.5;exitY=0;exitDx=0;exitDy=0;" parent="1" source="pK3gkvbiueadR3NNzkU--10" target="pK3gkvbiueadR3NNzkU--153" edge="1">
                    <mxGeometry width="50" height="50" relative="1" as="geometry">
                        <mxPoint x="800" y="360" as="sourcePoint"/>
                        <mxPoint x="850" y="310" as="targetPoint"/>
                    </mxGeometry>
                </mxCell>
                <mxCell id="pK3gkvbiueadR3NNzkU--162" value="College" style="ellipse;whiteSpace=wrap;html=1;fontSize=16;" parent="1" vertex="1">
                    <mxGeometry x="840" y="417.5" width="120" height="45" as="geometry"/>
                </mxCell>
                <mxCell id="pK3gkvbiueadR3NNzkU--163" value="" style="endArrow=none;html=1;rounded=0;fontSize=16;entryX=0.5;entryY=1;entryDx=0;entryDy=0;exitX=0.75;exitY=0;exitDx=0;exitDy=0;" parent="1" source="pK3gkvbiueadR3NNzkU--10" target="pK3gkvbiueadR3NNzkU--155" edge="1">
                    <mxGeometry width="50" height="50" relative="1" as="geometry">
                        <mxPoint x="800" y="360" as="sourcePoint"/>
                        <mxPoint x="850" y="310" as="targetPoint"/>
                    </mxGeometry>
                </mxCell>
                <mxCell id="pK3gkvbiueadR3NNzkU--165" value="" style="endArrow=none;html=1;rounded=0;fontSize=16;entryX=0;entryY=0.5;entryDx=0;entryDy=0;exitX=1;exitY=0;exitDx=0;exitDy=0;" parent="1" source="pK3gkvbiueadR3NNzkU--10" target="pK3gkvbiueadR3NNzkU--156" edge="1">
                    <mxGeometry width="50" height="50" relative="1" as="geometry">
                        <mxPoint x="740" y="340" as="sourcePoint"/>
                        <mxPoint x="819.9999999999823" y="222.5" as="targetPoint"/>
                    </mxGeometry>
                </mxCell>
                <mxCell id="pK3gkvbiueadR3NNzkU--166" value="" style="endArrow=none;html=1;rounded=0;fontSize=16;entryX=0;entryY=0.5;entryDx=0;entryDy=0;exitX=1;exitY=1;exitDx=0;exitDy=0;" parent="1" source="pK3gkvbiueadR3NNzkU--10" target="pK3gkvbiueadR3NNzkU--159" edge="1">
                    <mxGeometry width="50" height="50" relative="1" as="geometry">
                        <mxPoint x="760" y="330" as="sourcePoint"/>
                        <mxPoint x="819.9999999999823" y="270" as="targetPoint"/>
                    </mxGeometry>
                </mxCell>
                <mxCell id="pK3gkvbiueadR3NNzkU--168" value="" style="endArrow=none;html=1;rounded=0;fontSize=16;entryX=0;entryY=0;entryDx=0;entryDy=0;exitX=1;exitY=1;exitDx=0;exitDy=0;" parent="1" source="pK3gkvbiueadR3NNzkU--10" target="pK3gkvbiueadR3NNzkU--162" edge="1">
                    <mxGeometry width="50" height="50" relative="1" as="geometry">
                        <mxPoint x="770" y="350" as="sourcePoint"/>
                        <mxPoint x="850.0000000000005" y="437.5" as="targetPoint"/>
                    </mxGeometry>
                </mxCell>
                <mxCell id="pK3gkvbiueadR3NNzkU--172" value="Statistics ..." style="ellipse;whiteSpace=wrap;html=1;fontSize=16;" parent="1" vertex="1">
                    <mxGeometry x="820" y="305" width="120" height="45" as="geometry"/>
                </mxCell>
                <mxCell id="pK3gkvbiueadR3NNzkU--173" value="" style="endArrow=none;html=1;rounded=0;fontSize=16;exitX=1;exitY=0.25;exitDx=0;exitDy=0;entryX=0;entryY=0.5;entryDx=0;entryDy=0;" parent="1" source="pK3gkvbiueadR3NNzkU--10" target="pK3gkvbiueadR3NNzkU--172" edge="1">
                    <mxGeometry width="50" height="50" relative="1" as="geometry">
                        <mxPoint x="840" y="280" as="sourcePoint"/>
                        <mxPoint x="890" y="230" as="targetPoint"/>
                    </mxGeometry>
                </mxCell>
                <mxCell id="4" value="AwardName" style="ellipse;whiteSpace=wrap;html=1;fontSize=16;" parent="1" vertex="1">
                    <mxGeometry x="640" y="710" width="120" height="80" as="geometry"/>
                </mxCell>
                <mxCell id="8" style="edgeStyle=none;html=1;exitX=1;exitY=0.5;exitDx=0;exitDy=0;entryX=0;entryY=0;entryDx=0;entryDy=0;fontSize=16;endArrow=none;endFill=0;" parent="1" source="7" target="pK3gkvbiueadR3NNzkU--1" edge="1">
                    <mxGeometry relative="1" as="geometry"/>
                </mxCell>
                <mxCell id="7" value="Total_championshisp" style="ellipse;whiteSpace=wrap;html=1;fontSize=16;" parent="1" vertex="1">
                    <mxGeometry x="-40" y="-180" width="160" height="50" as="geometry"/>
                </mxCell>
                <mxCell id="9" value="Division" style="ellipse;whiteSpace=wrap;html=1;fontSize=16;" parent="1" vertex="1">
                    <mxGeometry x="-46.25" y="70" width="112.5" height="50" as="geometry"/>
                </mxCell>
                <mxCell id="16" style="edgeStyle=none;html=1;exitX=0.5;exitY=0;exitDx=0;exitDy=0;entryX=0.5;entryY=1;entryDx=0;entryDy=0;endArrow=none;endFill=0;" edge="1" parent="1" source="17" target="pK3gkvbiueadR3NNzkU--10">
                    <mxGeometry relative="1" as="geometry"/>
                </mxCell>
                <mxCell id="25" value="&lt;font style=&quot;font-size: 20px&quot;&gt;1&lt;/font&gt;" style="edgeLabel;html=1;align=center;verticalAlign=middle;resizable=0;points=[];" vertex="1" connectable="0" parent="16">
                    <mxGeometry x="-0.6663" y="5" relative="1" as="geometry">
                        <mxPoint as="offset"/>
                    </mxGeometry>
                </mxCell>
                <mxCell id="14" value="Involved In" style="rhombus;whiteSpace=wrap;html=1;fontSize=16;" vertex="1" parent="1">
                    <mxGeometry x="825" y="510" width="110" height="105" as="geometry"/>
                </mxCell>
                <mxCell id="22" style="edgeStyle=none;html=1;exitX=0.5;exitY=1;exitDx=0;exitDy=0;entryX=0;entryY=0;entryDx=0;entryDy=0;endArrow=none;endFill=0;" edge="1" parent="1" source="17" target="18">
                    <mxGeometry relative="1" as="geometry"/>
                </mxCell>
                <mxCell id="17" value="" style="rhombus;whiteSpace=wrap;html=1;fontSize=16;fillColor=none;" vertex="1" parent="1">
                    <mxGeometry x="810" y="495" width="140" height="135" as="geometry"/>
                </mxCell>
                <mxCell id="18" value="" style="rounded=0;whiteSpace=wrap;html=1;fontSize=16;" vertex="1" parent="1">
                    <mxGeometry x="880" y="697.5" width="130" height="65" as="geometry"/>
                </mxCell>
                <mxCell id="19" style="edgeStyle=none;html=1;entryX=0.5;entryY=0;entryDx=0;entryDy=0;fontSize=16;endArrow=none;endFill=0;" edge="1" source="20" target="21" parent="1">
                    <mxGeometry relative="1" as="geometry"/>
                </mxCell>
                <mxCell id="20" value="&lt;font style=&quot;font-size: 16px&quot;&gt;TRADE&lt;/font&gt;" style="rounded=0;whiteSpace=wrap;html=1;" vertex="1" parent="1">
                    <mxGeometry x="885" y="705" width="120" height="50" as="geometry"/>
                </mxCell>
                <mxCell id="21" value="New Team" style="ellipse;whiteSpace=wrap;html=1;fontSize=16;" vertex="1" parent="1">
                    <mxGeometry x="790" y="777.5" width="120" height="80" as="geometry"/>
                </mxCell>
                <mxCell id="24" style="edgeStyle=none;html=1;exitX=0.5;exitY=0;exitDx=0;exitDy=0;entryX=0.75;entryY=1;entryDx=0;entryDy=0;endArrow=none;endFill=0;" edge="1" parent="1" source="23" target="18">
                    <mxGeometry relative="1" as="geometry"/>
                </mxCell>
                <mxCell id="23" value="Former Team" style="ellipse;whiteSpace=wrap;html=1;fontSize=16;" vertex="1" parent="1">
                    <mxGeometry x="920" y="777.5" width="120" height="80" as="geometry"/>
                </mxCell>
                <mxCell id="26" value="1" style="text;html=1;align=center;verticalAlign=middle;resizable=0;points=[];autosize=1;strokeColor=none;fillColor=none;fontSize=20;" vertex="1" parent="1">
                    <mxGeometry x="885" y="655" width="30" height="30" as="geometry"/>
                </mxCell>
                <mxCell id="29" style="edgeStyle=none;html=1;entryX=0.25;entryY=0;entryDx=0;entryDy=0;fontSize=20;endArrow=none;endFill=0;" edge="1" parent="1" source="28" target="pK3gkvbiueadR3NNzkU--10">
                    <mxGeometry relative="1" as="geometry"/>
                </mxCell>
                <mxCell id="31" value="M" style="edgeLabel;html=1;align=center;verticalAlign=middle;resizable=0;points=[];fontSize=20;" vertex="1" connectable="0" parent="29">
                    <mxGeometry x="-0.2428" y="3" relative="1" as="geometry">
                        <mxPoint as="offset"/>
                    </mxGeometry>
                </mxCell>
                <mxCell id="30" style="edgeStyle=none;html=1;fontSize=20;endArrow=none;endFill=0;entryX=0;entryY=1;entryDx=0;entryDy=0;" edge="1" parent="1" source="28" target="34">
                    <mxGeometry relative="1" as="geometry">
                        <mxPoint x="720" y="90" as="targetPoint"/>
                    </mxGeometry>
                </mxCell>
                <mxCell id="32" value="1" style="edgeLabel;html=1;align=center;verticalAlign=middle;resizable=0;points=[];fontSize=20;" vertex="1" connectable="0" parent="30">
                    <mxGeometry x="-0.213" relative="1" as="geometry">
                        <mxPoint x="1" as="offset"/>
                    </mxGeometry>
                </mxCell>
                <mxCell id="28" value="Signed" style="rhombus;whiteSpace=wrap;html=1;fontSize=20;fillColor=default;" vertex="1" parent="1">
                    <mxGeometry x="530" y="150" width="140" height="110" as="geometry"/>
                </mxCell>
                <mxCell id="33" value="" style="rhombus;whiteSpace=wrap;html=1;fontSize=20;fillColor=none;" vertex="1" parent="1">
                    <mxGeometry x="550" y="165" width="100" height="80" as="geometry"/>
                </mxCell>
                <mxCell id="34" value="" style="rounded=0;whiteSpace=wrap;html=1;fontSize=20;fillColor=none;" vertex="1" parent="1">
                    <mxGeometry x="695" y="30" width="120" height="60" as="geometry"/>
                </mxCell>
                <mxCell id="35" value="&lt;font style=&quot;font-size: 16px&quot;&gt;FREE AGENT&lt;/font&gt;" style="rounded=0;whiteSpace=wrap;html=1;fontSize=20;fillColor=default;" vertex="1" parent="1">
                    <mxGeometry x="700" y="35" width="110" height="50" as="geometry"/>
                </mxCell>
                <mxCell id="36" style="edgeStyle=none;html=1;entryX=0.5;entryY=0;entryDx=0;entryDy=0;fontSize=16;endArrow=none;endFill=0;exitX=0.5;exitY=0;exitDx=0;exitDy=0;" edge="1" target="37" parent="1" source="34">
                    <mxGeometry relative="1" as="geometry">
                        <mxPoint x="985.0000000000005" y="-42.500000000000455" as="sourcePoint"/>
                    </mxGeometry>
                </mxCell>
                <mxCell id="37" value="&lt;u&gt;New Team&lt;/u&gt;" style="ellipse;whiteSpace=wrap;html=1;fontSize=16;" vertex="1" parent="1">
                    <mxGeometry x="750" y="-75" width="120" height="80" as="geometry"/>
                </mxCell>
                <mxCell id="40" style="edgeStyle=none;html=1;exitX=1;exitY=0.5;exitDx=0;exitDy=0;entryX=0;entryY=1;entryDx=0;entryDy=0;fontSize=16;endArrow=none;endFill=0;" edge="1" parent="1" source="38" target="pK3gkvbiueadR3NNzkU--10">
                    <mxGeometry relative="1" as="geometry"/>
                </mxCell>
                <mxCell id="42" value="N" style="edgeLabel;html=1;align=center;verticalAlign=middle;resizable=0;points=[];fontSize=16;" vertex="1" connectable="0" parent="40">
                    <mxGeometry x="-0.2653" y="-4" relative="1" as="geometry">
                        <mxPoint as="offset"/>
                    </mxGeometry>
                </mxCell>
                <mxCell id="38" value="Free Agent" style="rhombus;whiteSpace=wrap;html=1;fontSize=16;" vertex="1" parent="1">
                    <mxGeometry x="502.5" y="390" width="110" height="105" as="geometry"/>
                </mxCell>
                <mxCell id="47" value="Logs" style="rhombus;whiteSpace=wrap;html=1;fontSize=16;fillColor=default;" vertex="1" parent="1">
                    <mxGeometry x="120" y="-260" width="80" height="80" as="geometry"/>
                </mxCell>
                <mxCell id="48" value="" style="edgeStyle=none;html=1;exitX=0;exitY=0;exitDx=0;exitDy=0;fontSize=16;endArrow=none;endFill=0;" edge="1" parent="1" source="pK3gkvbiueadR3NNzkU--1" target="47">
                    <mxGeometry relative="1" as="geometry">
                        <mxPoint x="160" y="-200" as="targetPoint"/>
                        <mxPoint x="290" y="240.00000000000023" as="sourcePoint"/>
                    </mxGeometry>
                </mxCell>
                <mxCell id="52" value="1" style="edgeLabel;html=1;align=center;verticalAlign=middle;resizable=0;points=[];fontSize=16;" vertex="1" connectable="0" parent="48">
                    <mxGeometry x="0.3131" y="1" relative="1" as="geometry">
                        <mxPoint as="offset"/>
                    </mxGeometry>
                </mxCell>
                <mxCell id="50" style="edgeStyle=none;html=1;entryX=0.5;entryY=0;entryDx=0;entryDy=0;fontSize=16;endArrow=none;endFill=0;" edge="1" parent="1" source="49" target="47">
                    <mxGeometry relative="1" as="geometry"/>
                </mxCell>
                <mxCell id="54" style="edgeStyle=none;html=1;exitX=1;exitY=1;exitDx=0;exitDy=0;entryX=0;entryY=0;entryDx=0;entryDy=0;fontSize=16;endArrow=none;endFill=0;" edge="1" parent="1" source="49" target="53">
                    <mxGeometry relative="1" as="geometry"/>
                </mxCell>
                <mxCell id="49" value="TEAM STATISTICS" style="rounded=0;whiteSpace=wrap;html=1;fontSize=16;fillColor=default;" vertex="1" parent="1">
                    <mxGeometry x="100" y="-360" width="120" height="60" as="geometry"/>
                </mxCell>
                <mxCell id="51" value="M" style="text;html=1;align=center;verticalAlign=middle;resizable=0;points=[];autosize=1;strokeColor=none;fillColor=none;fontSize=16;" vertex="1" parent="1">
                    <mxGeometry x="155" y="-280" width="30" height="20" as="geometry"/>
                </mxCell>
                <mxCell id="53" value="Statistics..." style="ellipse;whiteSpace=wrap;html=1;fontSize=16;fillColor=default;" vertex="1" parent="1">
                    <mxGeometry x="250" y="-300" width="120" height="80" as="geometry"/>
                </mxCell>
            </root>
        </mxGraphModel>
    </diagram>
</mxfile>